<svg xmlns="http://www.w3.org/2000/svg" xmlns:xlink="http://www.w3.org/1999/xlink" width="50" height="50" viewBox="0 0 50 50">
  <defs>
    <clipPath id="clip-path">
      <rect id="矩形_9849" data-name="矩形 9849" width="50" height="50" transform="translate(1183 1971)" fill="#fff" stroke="#707070" stroke-width="1"/>
    </clipPath>
  </defs>
  <g id="SSD" transform="translate(-1183 -1971)" clip-path="url(#clip-path)">
    <path id="路径_51163" data-name="路径 51163" d="M119.835,85.387l-4.972-4.111a2.829,2.829,0,0,0-1.679-.723H83.231a2.929,2.929,0,0,0-2.687,2.954v34.927a2.471,2.471,0,0,0,2.687,2.419h34.928a2.471,2.471,0,0,0,2.687-2.419V87.486a2.691,2.691,0,0,0-1.01-2.1Zm-11.08-2.148V91.3h-4.03v-8.06Zm-6.717,0V91.3H91.291v-8.06h10.747Zm9.4,22.837H89.947v-2.687h21.494v2.687Zm-21.494,2.687h21.494v9.4H89.947v-9.4Zm28.211,9.4h-4.03V103.389a2.691,2.691,0,0,0-2.687-2.687H89.947a2.69,2.69,0,0,0-2.687,2.687v14.777h-4.03V83.239H88.6V91.3a2.69,2.69,0,0,0,2.687,2.687h17.464a2.691,2.691,0,0,0,2.687-2.687v-8.06h1.343v.134l5.373,4.113v30.681Z" transform="translate(1107.457 1895.342)" fill="#3c4043"/>
  </g>
</svg>
