<svg xmlns="http://www.w3.org/2000/svg" xmlns:xlink="http://www.w3.org/1999/xlink" width="50" height="50" viewBox="0 0 50 50">
  <defs>
    <clipPath id="clip-path">
      <rect id="矩形_9848" data-name="矩形 9848" width="50" height="50" transform="translate(876 1971)" fill="#fff" stroke="#707070" stroke-width="1"/>
    </clipPath>
  </defs>
  <g id="DDR4" transform="translate(-876 -1971)" clip-path="url(#clip-path)">
    <g id="组_38655" data-name="组 38655" transform="translate(880 1975.895)">
      <path id="路径_51161" data-name="路径 51161" d="M44.7,48.618H12.235A3.892,3.892,0,0,1,8.318,44.7V12.235a3.892,3.892,0,0,1,3.917-3.917H44.7a3.892,3.892,0,0,1,3.917,3.917V44.7A3.892,3.892,0,0,1,44.7,48.618ZM12.235,10.93a1.306,1.306,0,0,0-1.306,1.306V44.7a1.306,1.306,0,0,0,1.306,1.306H44.7A1.306,1.306,0,0,0,46.006,44.7V12.235A1.306,1.306,0,0,0,44.7,10.93Z" transform="translate(-8.318 -8.318)" fill="#3c4043"/>
      <path id="路径_51162" data-name="路径 51162" d="M182.069,184.68h-9.832a3.917,3.917,0,0,1-3.917-3.917v-4.045a3.917,3.917,0,0,1,3.917-3.917h1.229a1.306,1.306,0,0,1,0,2.56h-1.229a1.306,1.306,0,0,0-1.306,1.306v4.1a1.306,1.306,0,0,0,1.306,1.306h9.832a1.306,1.306,0,1,1,0,2.56Zm9.832,0h-1.229a1.306,1.306,0,0,1,0-2.56H191.9a1.306,1.306,0,0,0,1.306-1.306v-4.1a1.306,1.306,0,0,0-1.306-1.306h-9.7a1.306,1.306,0,1,1,0-2.56h9.7a3.917,3.917,0,0,1,3.917,3.917v3.994A3.917,3.917,0,0,1,191.9,184.68Zm-9.832,15.26h-9.832a3.917,3.917,0,0,1-3.917-3.917v-4.045a3.917,3.917,0,0,1,3.917-3.917h1.229a1.306,1.306,0,0,1,0,2.56h-1.229a1.306,1.306,0,0,0-1.306,1.306v4.045a1.306,1.306,0,0,0,1.306,1.306h9.832a1.306,1.306,0,1,1,0,2.56Zm9.832,0h-1.229a1.306,1.306,0,0,1,0-2.56H191.9a1.306,1.306,0,0,0,1.306-1.306v-4.1a1.306,1.306,0,0,0-1.306-1.306h-9.7a1.306,1.306,0,0,1,0-2.56h9.7a3.917,3.917,0,0,1,3.917,3.917v4.045A3.917,3.917,0,0,1,191.9,199.94Z" transform="translate(-161.919 -166.22)" fill="#3c4043"/>
    </g>
  </g>
</svg>
