<svg xmlns="http://www.w3.org/2000/svg" xmlns:xlink="http://www.w3.org/1999/xlink" width="42.111" height="42.111" viewBox="0 0 42.111 42.111">
  <defs>
    <clipPath id="clip-path">
      <path id="路径_51156" data-name="路径 51156" d="M0,0H42.111V42.111H0Z" transform="translate(0.5 -0.895)" fill="#fff"/>
    </clipPath>
  </defs>
  <g id="_75f04568-687a-427f-9343-9d0acccc136f" data-name="75f04568-687a-427f-9343-9d0acccc136f" transform="translate(-0.5 0.895)" clip-path="url(#clip-path)">
    <path id="路径_51154" data-name="路径 51154" d="M33.284,0H4.755A4.755,4.755,0,0,0,0,4.755v28.53A4.755,4.755,0,0,0,4.755,38.04H33.284a4.755,4.755,0,0,0,4.755-4.755V4.755A4.755,4.755,0,0,0,33.284,0Z" transform="translate(2.517 1.211)" fill="none" stroke="#3c4043" stroke-width="2.5"/>
    <path id="路径_56906" data-name="路径 56906" d="M-9.365-7v3.8l-2.7-3.8h-1.2V0h1.6V-3.8l2.7,3.8h1.2V-7Zm5.05,2.46h-.57l.07-.96h2.55V-7h-4.05l-.29,4.02h2.19c.61,0,.9.35.9.78s-.29.78-.95.78a1.029,1.029,0,0,1-1.12-.74l-1.38.8a2.529,2.529,0,0,0,2.5,1.5A2.334,2.334,0,0,0-1.915-2.2,2.239,2.239,0,0,0-4.315-4.54ZM.065-7l-1.83.66.39,1.37,1.24-.34V0h1.6V-7ZM5.315.14c1.81,0,2.85-1.48,2.85-3.64s-1.04-3.64-2.85-3.64S2.465-5.66,2.465-3.5,3.5.14,5.315.14Zm0-1.56c-.84,0-1.25-.73-1.25-2.08s.41-2.08,1.25-2.08,1.25.73,1.25,2.08S6.155-1.42,5.315-1.42Zm5.9-3.12h-.57l.07-.96h2.55V-7H9.215l-.29,4.02h2.19c.61,0,.9.35.9.78s-.29.78-.95.78a1.029,1.029,0,0,1-1.12-.74l-1.38.8a2.529,2.529,0,0,0,2.5,1.5,2.334,2.334,0,0,0,2.55-2.34A2.239,2.239,0,0,0,11.215-4.54Z" transform="translate(21.555 23.531)" fill="#3c4043"/>
  </g>
</svg>
