<svg xmlns="http://www.w3.org/2000/svg" width="23" height="23" viewBox="0 0 23 23">
  <g id="user" style="isolation: isolate">
    <g id="vuesax_outline_user" data-name="vuesax/outline/user" style="isolation: isolate">
      <g id="user-2" data-name="user" style="isolation: isolate">
        <path id="Vector" d="M0,5.51a5.51,5.51,0,1,1,5.51,5.51A5.517,5.517,0,0,1,0,5.51Zm1.438,0A4.073,4.073,0,1,0,5.51,1.438,4.082,4.082,0,0,0,1.438,5.51Z" transform="translate(5.99 1.198)" fill="#292d32" style="isolation: isolate"/>
        <path id="Vector-2" data-name="Vector" d="M16.464,7.427c0-3.306-3.373-5.99-7.513-5.99S1.438,4.121,1.438,7.427a.724.724,0,0,1-.719.719A.724.724,0,0,1,0,7.427C0,3.335,4.015,0,8.951,0S17.9,3.335,17.9,7.427a.719.719,0,1,1-1.437,0Z" transform="translate(2.549 13.656)" fill="#292d32" style="isolation: isolate"/>
        <path id="Vector-3" data-name="Vector" d="M23,0V23H0V0Z" fill="none" opacity="0" style="isolation: isolate"/>
      </g>
    </g>
  </g>
</svg>
