<svg xmlns="http://www.w3.org/2000/svg" width="34" height="34" viewBox="0 0 34 34">
  <g id="clipboard-text" style="isolation: isolate">
    <path id="Vector" d="M1.063,2.125A1.07,1.07,0,0,1,0,1.063,1.07,1.07,0,0,1,1.063,0h9.917a1.07,1.07,0,0,1,1.063,1.063,1.07,1.07,0,0,1-1.062,1.063Z" transform="translate(10.271 16.221)" fill="#292d32" style="isolation: isolate"/>
    <path id="Vector-2" data-name="Vector" d="M1.063,2.125A1.07,1.07,0,0,1,0,1.063,1.07,1.07,0,0,1,1.063,0h6.2A1.07,1.07,0,0,1,8.33,1.063,1.07,1.07,0,0,1,7.267,2.125Z" transform="translate(10.271 21.888)" fill="#292d32" style="isolation: isolate"/>
    <path id="Vector-3" data-name="Vector" d="M3.9,7.792c-1.36,0-3.9,0-3.9-3.9S2.536,0,3.9,0H9.563c1.36,0,3.9,0,3.9,3.9,0,1.36,0,3.9-3.9,3.9ZM2.125,3.9c0,1.771.368,1.771,1.771,1.771H9.563c1.771,0,1.771-.368,1.771-1.771,0-1.771-.368-1.771-1.771-1.771H3.9C2.493,2.125,2.125,2.125,2.125,3.9Z" transform="translate(10.271 1.771)" fill="#292d32" style="isolation: isolate"/>
    <path id="Vector-4" data-name="Vector" d="M9.563,27.6C1.6,27.6,0,23.943,0,18.035v-8.5C0,3.075,2.337.313,8.089.015A1.071,1.071,0,0,1,9.208,1.021,1.051,1.051,0,0,1,8.2,2.126c-4.023.227-6.078,1.431-6.078,7.409v8.5c0,5.242,1.034,7.438,7.438,7.438h8.5c6.4,0,7.438-2.2,7.438-7.438v-8.5c0-5.978-2.054-7.182-6.077-7.409a1.072,1.072,0,0,1-1.006-1.119A1.072,1.072,0,0,1,19.536,0c5.752.312,8.089,3.074,8.089,9.52v8.5c0,5.922-1.6,9.577-9.562,9.577Z" transform="translate(3.188 4.631)" fill="#292d32" style="isolation: isolate"/>
    <path id="Vector-5" data-name="Vector" d="M34,0V34H0V0Z" fill="none" opacity="0" style="isolation: isolate"/>
  </g>
</svg>
