<svg viewBox="0 0 23 23" height="23" width="23" xmlns:xlink="http://www.w3.org/1999/xlink" xmlns="http://www.w3.org/2000/svg">
  <defs>
    <clipPath id="clip-path">
      <rect stroke-width="1" stroke="#707070" fill="#fff" transform="translate(1437 40)" height="23" width="23" data-name="矩形 9807" id="矩形_9807"></rect>
    </clipPath>
  </defs>
  <g clip-path="url(#clip-path)" transform="translate(-1437 -40)" data-name="蒙版组 233" id="蒙版组_233">
    <path stroke-width="0.2" stroke="#292d32" fill="#292d32" transform="translate(1434.5 51.411) rotate(-45)" d="M10.065,20.372a9.977,9.977,0,0,0,7.12-2.98,10.128,10.128,0,0,0,1.91-2.718s.008,0,.011-.008a.449.449,0,0,0,.125-.291,10.291,10.291,0,0,0-2.047-11.4,10,10,0,0,0-14.24,0,10.29,10.29,0,0,0,0,14.412A9.978,9.978,0,0,0,10.065,20.372ZM3.022,16.13a.444.444,0,0,0,.1-.209A19.408,19.408,0,0,1,5.04,9.959l5.7,5.766a18.858,18.858,0,0,1-5.892,1.94.433.433,0,0,0-.132.051,9.187,9.187,0,0,1-1.136-.963C3.38,16.552,3.2,16.343,3.022,16.13ZM5.506,9.15A12.044,12.044,0,0,1,9.224,5.305l6.111,6.185a12.036,12.036,0,0,1-3.8,3.762ZM5.784,18.4a18.8,18.8,0,0,0,5.6-2.018l2.3,2.329A9.115,9.115,0,0,1,5.784,18.4Zm10.768-1.647a9.141,9.141,0,0,1-2.018,1.535l-2.366-2.395a13.1,13.1,0,0,0,3.8-3.761l2.259,2.287A9.24,9.24,0,0,1,16.552,16.752Zm2.064-3.221L16.45,11.338a15.54,15.54,0,0,0,1.768-5.4A9.428,9.428,0,0,1,18.616,13.531ZM17.5,4.765a.457.457,0,0,0-.051.168,15.388,15.388,0,0,1-1.642,5.754l-5.79-5.86A14.935,14.935,0,0,1,15.7,3.165a.433.433,0,0,0,.234-.107c.211.178.418.363.615.563A9.244,9.244,0,0,1,17.5,4.765ZM10.065.905a9.089,9.089,0,0,1,4.913,1.446,15.234,15.234,0,0,0-5.6,1.825L6.76,1.531A9.112,9.112,0,0,1,10.065.905ZM3.577,3.62a9.133,9.133,0,0,1,2.307-1.7L8.591,4.664A13.109,13.109,0,0,0,4.874,8.511L2.1,5.706a.414.414,0,0,0-.048-.033A9.232,9.232,0,0,1,3.577,3.62Zm-1.934,2.9L4.392,9.3a19.5,19.5,0,0,0-2.04,5.9A9.41,9.41,0,0,1,1.643,6.521Z" data-name="路径 56908" id="路径_56908"></path>
  </g>
</svg>
