<svg xmlns="http://www.w3.org/2000/svg" xmlns:xlink="http://www.w3.org/1999/xlink" width="50" height="50" viewBox="0 0 50 50">
  <defs>
    <clipPath id="clip-path">
      <rect id="矩形_9847" data-name="矩形 9847" width="50" height="50" transform="translate(1419 1971)" fill="#fff" stroke="#707070" stroke-width="1"/>
    </clipPath>
  </defs>
  <g id="WiFi" transform="translate(-1419 -1971)" clip-path="url(#clip-path)">
    <path id="路径_51164" data-name="路径 51164" d="M148.984,287.47a5.93,5.93,0,0,1,8.394,0l-4.2,4.2Zm15.392-7.009-2.8,2.8a11.882,11.882,0,0,0-16.788,0l-2.8-2.8a15.8,15.8,0,0,1,22.384,0Zm6.992-7-2.8,2.8c-8.362-8.373-21.614-8.736-30.776,0l-2.8-2.8a25.68,25.68,0,0,1,36.374,0Zm6.994-7.007-2.8,2.8c-12.215-12.23-31.833-12.23-44.768,0l-2.8-2.8A35.539,35.539,0,0,1,178.363,266.458Z" transform="translate(1291 1722.11)" fill="#3c4043"/>
  </g>
</svg>
